<?xml version="1.0" encoding="iso-8859-1"?>
<!-- Generator: Adobe Illustrator 17.0.0, SVG Export Plug-In . SVG Version: 6.00 Build 0)  -->
<!DOCTYPE svg PUBLIC "-//W3C//DTD SVG 1.1//EN" "http://www.w3.org/Graphics/SVG/1.1/DTD/svg11.dtd">
<svg version="1.1" id="Layer_1" xmlns="http://www.w3.org/2000/svg" xmlns:xlink="http://www.w3.org/1999/xlink" x="0px" y="0px"
	 width="228.651px" height="152px" viewBox="0 0 228.651 152" style="enable-background:new 0 0 228.651 152;" xml:space="preserve"
	>
<style type="text/css">
	.st0{fill:#007AA6;}
	.st1{fill:#FFFFFF;}
	.st2{fill:#EBEDED;}
	.st3{fill:#E57E25;}
	.st4{opacity:0.1;fill:#231F20;}
	.st5{fill:#231F20;}
	.st6{fill:#0556A3;}
	.st7{fill:#F29C1F;}
	.st8{fill:#2756A6;}
	.st9{fill:#22205F;}
	.st10{fill:#CB2027;}
	.st11{fill:#F8991D;}
</style>
<g>
	<path class="st0" d="M228,136.8c0,8.395-6.805,15.2-15.2,15.2H15.2C6.805,152,0,145.195,0,136.8V15.2C0,6.805,6.805,0,15.2,0h197.6
		c8.395,0,15.2,6.805,15.2,15.2V136.8z"/>
	<g>
		<g>
			<path class="st1" d="M21.169,54.332l-4.387-10.69l-4.362,10.69 M117.812,50.075c-0.881,0.535-1.922,0.552-3.17,0.552h-7.786
				v-5.956h7.892c1.117,0,2.282,0.05,3.039,0.484c0.831,0.391,1.346,1.222,1.346,2.371
				C119.133,48.698,118.644,49.641,117.812,50.075z M173.359,54.332l-4.435-10.69l-4.411,10.69H173.359z M69.817,65.903h-6.571
				l-0.024-21.001l-9.294,21.001H48.3l-9.318-21.02v21.02H25.946l-2.463-5.981H10.138L7.65,65.903H0.689l11.478-26.815h9.523
				L32.59,64.476V39.088h10.461l8.388,18.191l7.705-18.191h10.671L69.817,65.903L69.817,65.903z M96.005,65.903H74.594V39.088
				h21.411v5.584H81.003v4.833h14.642v5.497H81.003v5.355h15.001V65.903z M126.194,46.31c0,4.275-2.853,6.484-4.516,7.147
				c1.402,0.534,2.6,1.477,3.17,2.258c0.905,1.334,1.061,2.525,1.061,4.92v5.268h-6.465l-0.024-3.382
				c0-1.613,0.154-3.934-1.012-5.224c-0.937-0.943-2.364-1.148-4.672-1.148h-6.88v9.753h-6.409V39.088h14.742
				c3.276,0,5.689,0.087,7.761,1.284C124.979,41.57,126.194,43.319,126.194,46.31z M136.451,65.903h-6.54V39.088h6.54V65.903z
				 M212.323,65.903h-9.083l-12.149-20.126v20.126h-13.053l-2.494-5.981h-13.314l-2.42,5.981h-7.5c-3.115,0-7.06-0.689-9.294-2.966
				c-2.252-2.277-3.424-5.361-3.424-10.237c0-3.977,0.701-7.612,3.455-10.485c2.072-2.14,5.317-3.127,9.734-3.127h6.205v5.746
				h-6.075c-2.339,0-3.66,0.348-4.932,1.589c-1.093,1.129-1.843,3.263-1.843,6.074c0,2.873,0.571,4.944,1.762,6.297
				c0.987,1.061,2.78,1.383,4.467,1.383h2.879l9.033-21.088h9.604l10.852,25.363V39.089h9.759l11.267,18.675V39.089h6.565
				L212.323,65.903L212.323,65.903z M0.615,71.17h10.951l2.469-5.956h5.528l2.463,5.956h21.547v-4.554l1.923,4.573h11.186
				l1.923-4.641v4.622h53.549l-0.025-9.777h1.036c0.725,0.025,0.937,0.092,0.937,1.29v8.487h27.696v-2.276
				c2.234,1.197,5.708,2.276,10.281,2.276h11.652l2.494-5.956h5.528l2.439,5.956h22.453v-5.658l3.4,5.658h17.992V33.771H200.23
				v4.417l-2.493-4.417h-18.272v4.417l-2.29-4.417h-24.68c-4.131,0-7.763,0.577-10.696,2.184v-2.184h-17.032v2.184
				c-1.867-1.656-4.41-2.184-7.239-2.184H55.305L51.13,43.43l-4.287-9.659H27.243v4.417l-2.153-4.417H8.376L0.614,51.552
				L0.615,71.17L0.615,71.17z"/>
			<path class="st1" d="M228.651,90.949h-11.681c-1.166,0-1.941,0.044-2.594,0.484c-0.676,0.434-0.937,1.079-0.937,1.93
				c0,1.012,0.571,1.7,1.402,1.998c0.676,0.235,1.402,0.304,2.47,0.304l3.474,0.093c3.505,0.087,5.845,0.689,7.272,2.159
				c0.26,0.205,0.416,0.434,0.594,0.664 M228.651,108.631c-1.557,2.277-4.591,3.431-8.698,3.431h-12.378v-5.751h12.328
				c1.223,0,2.079-0.161,2.594-0.664c0.447-0.415,0.758-1.017,0.758-1.749c0-0.781-0.311-1.402-0.783-1.774
				c-0.465-0.409-1.142-0.595-2.258-0.595c-6.018-0.205-13.526,0.186-13.526-8.302c0-3.89,2.47-7.985,9.196-7.985h12.767v-5.336
				h-11.862c-3.58,0-6.18,0.857-8.022,2.19v-2.19h-17.545c-2.806,0-6.099,0.696-7.657,2.19v-2.19h-31.331v2.19
				c-2.493-1.799-6.701-2.19-8.643-2.19h-20.666v2.19c-1.973-1.91-6.36-2.19-9.034-2.19H90.762l-5.293,5.728l-4.957-5.728h-34.55
				v37.425h33.9l5.454-5.819l5.138,5.819l20.896,0.019v-8.804h2.054c2.772,0.043,6.042-0.069,8.927-1.316v10.1h17.236v-9.754h0.831
				c1.061,0,1.166,0.044,1.166,1.104v8.649h52.358c3.324,0,6.799-0.851,8.723-2.395v2.395h16.608c3.456,0,6.831-0.484,9.399-1.725
				V108.631L228.651,108.631z M203.084,97.916c1.248,1.292,1.917,2.922,1.917,5.683c0,5.77-3.605,8.463-10.069,8.463h-12.484v-5.751
				h12.434c1.216,0,2.078-0.161,2.618-0.664c0.441-0.415,0.757-1.017,0.757-1.749c0-0.781-0.342-1.402-0.782-1.774
				c-0.49-0.409-1.166-0.595-2.282-0.595c-5.994-0.205-13.501,0.186-13.501-8.302c0-3.89,2.444-7.985,9.164-7.985h12.849v5.709
				h-11.757c-1.165,0-1.923,0.044-2.568,0.484c-0.702,0.434-0.963,1.079-0.963,1.93c0,1.012,0.596,1.7,1.402,1.998
				c0.676,0.235,1.402,0.304,2.494,0.304l3.45,0.093C199.244,95.844,201.632,96.446,203.084,97.916z M145.249,96.26
				c-0.857,0.509-1.918,0.552-3.165,0.552h-7.786v-6.024h7.892c1.141,0,2.283,0.024,3.059,0.484
				c0.831,0.434,1.327,1.265,1.327,2.413S146.079,95.758,145.249,96.26z M149.12,99.598c1.427,0.526,2.593,1.47,3.14,2.252
				c0.905,1.309,1.036,2.532,1.062,4.896v5.317h-6.435v-3.356c0-1.613,0.155-4.003-1.036-5.25c-0.937-0.961-2.364-1.19-4.702-1.19
				h-6.85v9.796h-6.44V85.241h14.798c3.245,0,5.608,0.143,7.712,1.266c2.023,1.222,3.295,2.896,3.295,5.956
				C153.662,96.744,150.807,98.928,149.12,99.598z M157.216,85.241h21.392v5.547h-15.009v4.876h14.642v5.472h-14.642v5.337
				l15.009,0.024v5.565h-21.392V85.241z M113.972,97.619h-8.283v-6.83h8.357c2.314,0,3.92,0.943,3.92,3.289
				C117.967,96.397,116.435,97.619,113.972,97.619z M99.306,109.623l-9.841-10.925l9.841-10.578V109.623z M73.892,106.473H58.134
				v-5.337h14.071v-5.472H58.134v-4.876h16.069l7.011,7.816L73.892,106.473z M124.848,94.077c0,7.451-5.559,8.989-11.161,8.989
				h-7.997v8.996H93.232l-7.892-8.879l-8.202,8.879H51.749V85.241h25.779l7.886,8.792l8.153-8.792h20.48
				C119.133,85.241,124.848,86.649,124.848,94.077z"/>
		</g>
	</g>
</g>
</svg>
