<?xml version="1.0" encoding="iso-8859-1"?>
<!-- Generator: Adobe Illustrator 17.0.0, SVG Export Plug-In . SVG Version: 6.00 Build 0)  -->
<!DOCTYPE svg PUBLIC "-//W3C//DTD SVG 1.1//EN" "http://www.w3.org/Graphics/SVG/1.1/DTD/svg11.dtd">
<svg version="1.1" id="Layer_1" xmlns="http://www.w3.org/2000/svg" xmlns:xlink="http://www.w3.org/1999/xlink" x="0px" y="0px"
	 width="228.651px" height="152px" viewBox="0 0 228.651 152" style="enable-background:new 0 0 228.651 152;" xml:space="preserve"
	>
<style type="text/css">
	.st0{fill:#007AA6;}
	.st1{fill:#FFFFFF;}
	.st2{fill:#EBEDED;}
	.st3{fill:#E57E25;}
	.st4{opacity:0.1;fill:#231F20;}
	.st5{fill:#231F20;}
	.st6{fill:#0556A3;}
	.st7{fill:#F29C1F;}
	.st8{fill:#2756A6;}
	.st9{fill:#22205F;}
	.st10{fill:#CB2027;}
	.st11{fill:#F8991D;}
</style>
<g>
	<path class="st9" d="M228.325,136.8c0,8.395-6.805,15.2-15.2,15.2h-197.6c-8.395,0-15.2-6.805-15.2-15.2V15.2
		c0-8.395,6.805-15.2,15.2-15.2h197.6c8.395,0,15.2,6.805,15.2,15.2V136.8z"/>
	<g>
		<circle class="st10" cx="85.239" cy="75.798" r="44.527"/>
		<circle class="st11" cx="145.065" cy="75.798" r="44.527"/>
		<path class="st7" d="M100.538,75.798c0,13.077,5.637,24.837,14.614,32.983c8.977-8.146,14.614-19.906,14.614-32.983
			s-5.637-24.837-14.614-32.983C106.175,50.961,100.538,62.721,100.538,75.798z"/>
	</g>
	<g>
		<path id="path4157_1_" class="st1" d="M96.375,90.852l0.794-5.393c-0.434,0-1.072,0.186-1.635,0.186
			c-2.208,0-2.452-1.174-2.311-2.042l1.784-11.004h3.356l0.81-5.965h-3.165l0.644-3.71h-6.345c-0.14,0.14-3.745,20.864-3.745,23.387
			c0,3.736,2.098,5.4,5.055,5.373C93.935,91.664,95.739,91.023,96.375,90.852z"/>
		<path id="path4155_1_" class="st1" d="M98.385,80.57c0,8.966,5.918,11.097,10.96,11.097c4.654,0,6.702-1.04,6.702-1.04
			l1.118-6.119c0,0-3.54,1.56-6.737,1.56c-6.813,0-5.62-5.08-5.62-5.08h12.894c0,0,0.833-4.111,0.833-5.786
			c0-4.181-2.081-9.274-9.047-9.274C103.108,65.928,98.385,72.802,98.385,80.57z M109.511,71.608c3.581,0,2.92,4.024,2.92,4.349
			h-7.044C105.387,75.542,106.053,71.608,109.511,71.608z"/>
		<path id="path4151_1_" class="st1" d="M149.688,90.85l1.135-6.917c0,0-3.113,1.561-5.25,1.561c-4.501,0-6.306-3.437-6.306-7.129
			c0-7.49,3.872-11.611,8.183-11.611c3.233,0,5.827,1.815,5.827,1.815l1.036-6.721c0,0-3.847-1.557-7.146-1.557
			c-7.324,0-14.45,6.354-14.45,18.287c0,7.913,3.847,13.139,11.419,13.139C146.278,91.719,149.688,90.85,149.688,90.85z"/>
		<path id="path4149_3_" class="st1" d="M61.479,66.025c-4.351,0-7.686,1.398-7.686,1.398l-0.921,5.466c0,0,2.753-1.118,6.914-1.118
			c2.363,0,4.091,0.266,4.091,2.186c0,1.166-0.212,1.597-0.212,1.597s-1.864-0.156-2.726-0.156c-5.487,0-11.251,2.342-11.251,9.402
			c0,5.563,3.782,6.84,6.125,6.84c4.476,0,6.406-2.905,6.509-2.913l-0.209,2.424H67.7l2.492-17.473
			C70.192,66.264,63.726,66.025,61.479,66.025z M62.839,80.252c0.121,1.067-0.669,6.07-4.489,6.07c-1.971,0-2.483-1.505-2.483-2.396
			c0-1.736,0.944-3.821,5.593-3.821C62.541,80.106,62.656,80.222,62.839,80.252z"/>
		<path id="path4145_1_" class="st1" d="M76.13,91.511c1.429,0,9.599,0.363,9.599-8.067c0-7.881-7.563-6.324-7.563-9.491
			c0-1.576,1.233-2.073,3.486-2.073c0.895,0,4.336,0.285,4.336,0.285l0.8-5.602c0,0-2.227-0.498-5.854-0.498
			c-4.693,0-9.458,1.874-9.458,8.284c0,7.264,7.944,6.535,7.944,9.595c0,2.043-2.219,2.209-3.93,2.209
			c-2.96,0-5.625-1.016-5.634-0.967L69.01,90.73C69.164,90.777,70.807,91.511,76.13,91.511z"/>
		<path id="path4139_1_" class="st1" d="M202.243,60.998l-1.369,8.492c0,0-2.388-3.299-6.127-3.299
			c-5.813,0-10.659,7.009-10.659,15.063c0,5.199,2.584,10.292,7.868,10.292c3.8,0,5.908-2.65,5.908-2.65l-0.279,2.263h6.171
			l4.847-30.172L202.243,60.998z M199.296,77.556c0,3.351-1.659,7.827-5.099,7.827c-2.283,0-3.353-1.917-3.353-4.925
			c0-4.919,2.209-8.164,4.997-8.164C198.125,72.293,199.296,73.862,199.296,77.556z"/>
		<path id="path4133_1_" class="st1" d="M27.126,91.186l3.862-22.778l0.567,22.778h4.371l8.154-22.778l-3.612,22.778h6.495
			l5.002-30.212H41.922l-6.255,18.537l-0.326-18.537h-9.259l-5.074,30.212H27.126z"/>
		<path id="path4131_3_" class="st1" d="M124.879,91.227c1.847-10.502,2.189-19.03,6.596-17.469
			c0.771-4.065,1.516-5.637,2.358-7.357c0,0-0.395-0.083-1.223-0.083c-2.841,0-4.946,3.882-4.946,3.882l0.566-3.565h-5.908
			l-3.958,24.592H124.879z"/>
		<g id="use8523_1_" transform="translate(847.0062,0)">
			<path id="path4149_2_" class="st1" d="M-682.678,66.025c-4.351,0-7.686,1.398-7.686,1.398l-0.92,5.466
				c0,0,2.753-1.118,6.914-1.118c2.363,0,4.09,0.266,4.09,2.186c0,1.166-0.211,1.597-0.211,1.597s-1.864-0.156-2.727-0.156
				c-5.486,0-11.251,2.342-11.251,9.402c0,5.563,3.781,6.84,6.125,6.84c4.476,0,6.406-2.905,6.508-2.913l-0.208,2.424
				c0,0,5.585,0,5.587,0l2.492-17.473C-673.965,66.264-680.432,66.025-682.678,66.025z M-681.317,80.252
				c0.121,1.067-0.67,6.07-4.491,6.07c-1.971,0-2.482-1.505-2.482-2.396c0-1.736,0.944-3.821,5.592-3.821
				C-681.617,80.106-681.502,80.222-681.317,80.252z"/>
		</g>
		<g id="use8525_1_" transform="translate(442.2857,0)">
			<path id="path4131_2_" class="st1" d="M-264.139,91.227c1.848-10.502,2.19-19.03,6.595-17.469
				c0.773-4.065,1.518-5.637,2.359-7.357c0,0-0.395-0.083-1.223-0.083c-2.841,0-4.946,3.882-4.946,3.882l0.566-3.565h-5.908
				l-3.958,24.592H-264.139z"/>
		</g>
	</g>
</g>
</svg>
