<?xml version="1.0" encoding="iso-8859-1"?>
<!-- Generator: Adobe Illustrator 17.0.0, SVG Export Plug-In . SVG Version: 6.00 Build 0)  -->
<!DOCTYPE svg PUBLIC "-//W3C//DTD SVG 1.1//EN" "http://www.w3.org/Graphics/SVG/1.1/DTD/svg11.dtd">
<svg version="1.1" id="Layer_1" xmlns="http://www.w3.org/2000/svg" xmlns:xlink="http://www.w3.org/1999/xlink" x="0px" y="0px"
	 width="228.651px" height="152px" viewBox="0 0 228.651 152" style="enable-background:new 0 0 228.651 152;" xml:space="preserve"
	>
<style type="text/css">
	.st0{fill:#007AA6;}
	.st1{fill:#FFFFFF;}
	.st2{fill:#EBEDED;}
	.st3{fill:#E57E25;}
	.st4{opacity:0.1;fill:#231F20;}
	.st5{fill:#231F20;}
	.st6{fill:#0556A3;}
	.st7{fill:#F29C1F;}
	.st8{fill:#2756A6;}
	.st9{fill:#22205F;}
	.st10{fill:#CB2027;}
	.st11{fill:#F8991D;}
</style>
<g>
	<path class="st2" d="M228,136.8c0,8.395-6.805,15.2-15.2,15.2H15.2C6.805,152,0,145.195,0,136.8V15.2C0,6.805,6.805,0,15.2,0h197.6
		c8.395,0,15.2,6.805,15.2,15.2V136.8z"/>
	<path class="st6" d="M212.744,0h-197.6C6.749,0,0,6.81,0,15.205V26h228V15.205C228,6.81,221.138,0,212.744,0z"/>
	<path class="st7" d="M212.744,152h-197.6C6.749,152,0,145.2,0,136.805V126h228v10.805C228,145.2,221.138,152,212.744,152z"/>
	<g>
		<polyline class="st8" points="90.797,100.117 98.732,50.996 111.416,50.996 103.481,100.117 90.797,100.117 		"/>
		<path class="st8" d="M149.49,52.199c-2.509-0.986-6.452-2.061-11.365-2.061c-12.541,0-21.369,6.667-21.441,16.211
			c-0.079,7.062,6.3,11,11.108,13.346c4.942,2.405,6.602,3.945,6.583,6.096c-0.034,3.289-3.945,4.797-7.592,4.797
			c-5.078,0-7.776-0.741-11.947-2.575l-1.632-0.782l-1.773,10.995c2.956,1.369,8.44,2.555,14.13,2.618
			c13.328,0,21.988-6.586,22.09-16.778c0.045-5.6-3.335-9.843-10.655-13.348c-4.432-2.276-7.153-3.786-7.121-6.091
			c0.002-2.043,2.297-4.228,7.266-4.228c4.148-0.066,7.152,0.891,9.492,1.889l1.138,0.562L149.49,52.199"/>
		<path class="st8" d="M182.026,51.043h-9.802c-3.04,0-5.314,0.87-6.647,4.074l-18.837,45.016h13.323c0,0,2.172-6.055,2.666-7.384
			c1.453,0,14.398,0.025,16.245,0.025c0.381,1.714,1.544,7.359,1.544,7.359h11.772L182.026,51.043 M166.38,82.702
			c1.052-2.825,5.053-13.731,5.053-13.731c-0.075,0.129,1.045-2.845,1.684-4.688l0.857,4.237c0,0,2.435,11.725,2.936,14.182
			C174.935,82.702,168.855,82.702,166.38,82.702z"/>
		<path class="st8" d="M80.158,51.036L67.742,84.525l-1.328-6.808c-2.315-7.844-9.514-16.345-17.569-20.605l11.355,42.962
			l13.425-0.009l19.972-49.029H80.158"/>
		<path class="st7" d="M56.218,51.002H35.763l-0.168,1.018c15.917,4.069,26.447,13.89,30.818,25.697l-4.446-22.57
			C61.201,52.034,58.973,51.111,56.218,51.002"/>
	</g>
</g>
</svg>
